<?xml version="1.0" encoding="UTF-8" standalone="no"?>
<!-- Created with Inkscape (http://www.inkscape.org/) -->

<svg
   xmlns:dc="http://purl.org/dc/elements/1.1/"
   xmlns:cc="http://creativecommons.org/ns#"
   xmlns:rdf="http://www.w3.org/1999/02/22-rdf-syntax-ns#"
   xmlns:svg="http://www.w3.org/2000/svg"
   xmlns="http://www.w3.org/2000/svg"
   xmlns:sodipodi="http://sodipodi.sourceforge.net/DTD/sodipodi-0.dtd"
   xmlns:inkscape="http://www.inkscape.org/namespaces/inkscape"
   width="744.09448819"
   height="1052.3622047"
   id="svg2"
   version="1.1"
   inkscape:version="0.48.4 r9939"
   sodipodi:docname="New document 1">
  <defs
     id="defs4">
    <clipPath
       clipPathUnits="userSpaceOnUse"
       id="clipPath3041">
      <path
         sodipodi:type="arc"
         style="fill:#de8787;fill-opacity:1;fill-rule:nonzero;stroke:none"
         id="path3043"
         sodipodi:cx="208.09143"
         sodipodi:cy="3.8238411"
         sodipodi:rx="955.60431"
         sodipodi:ry="236.3757"
         d="m 1163.6957,3.8238411 a 955.60431,236.3757 0 1 1 -1911.20858,0 955.60431,236.3757 0 1 1 1911.20858,0 z"
         transform="translate(185.86807,107.07617)" />
    </clipPath>
  </defs>
  <sodipodi:namedview
     id="base"
     pagecolor="#ffffff"
     bordercolor="#666666"
     borderopacity="1.0"
     inkscape:pageopacity="0.0"
     inkscape:pageshadow="2"
     inkscape:zoom="0.7"
     inkscape:cx="74.682853"
     inkscape:cy="873.62213"
     inkscape:document-units="px"
     inkscape:current-layer="layer1"
     showgrid="false"
     inkscape:window-width="1366"
     inkscape:window-height="721"
     inkscape:window-x="-4"
     inkscape:window-y="-4"
     inkscape:window-maximized="1" />
  <metadata
     id="metadata7">
    <rdf:RDF>
      <cc:Work
         rdf:about="">
        <dc:format>image/svg+xml</dc:format>
        <dc:type
           rdf:resource="http://purl.org/dc/dcmitype/StillImage" />
        <dc:title></dc:title>
      </cc:Work>
    </rdf:RDF>
  </metadata>
  <g
     inkscape:label="Layer 1"
     inkscape:groupmode="layer"
     id="layer1">
    <g
       id="g3942"
       inkscape:export-filename="C:\server\www\2k14\images\black_cloud.png"
       inkscape:export-xdpi="100"
       inkscape:export-ydpi="100">
      <path
         inkscape:connector-curvature="0"
         id="path2985"
         d="M -155.56349,-4.2573793"
         style="fill:none;stroke:#000000;stroke-width:1px;stroke-linecap:butt;stroke-linejoin:miter;stroke-opacity:1" />
      <path
         transform="matrix(0.60315266,0,0,0.73575553,106.41099,118.90248)"
         d="m 375.71428,182.36218 a 143.57143,88.571426 0 1 1 -287.142854,0 143.57143,88.571426 0 1 1 287.142854,0 z"
         sodipodi:ry="88.571426"
         sodipodi:rx="143.57143"
         sodipodi:cy="182.36218"
         sodipodi:cx="232.14285"
         id="path3070"
         style="fill:#2a2a2a;fill-opacity:1;fill-rule:nonzero;stroke:none;stroke-opacity:1"
         sodipodi:type="arc" />
      <path
         sodipodi:type="arc"
         style="fill:#2a2a2a;fill-opacity:1;fill-rule:nonzero;stroke:none"
         id="path3842"
         sodipodi:cx="232.14285"
         sodipodi:cy="182.36218"
         sodipodi:rx="143.57143"
         sodipodi:ry="88.571426"
         d="m 375.71428,182.36218 a 143.57143,88.571426 0 1 1 -287.142854,0 143.57143,88.571426 0 1 1 287.142854,0 z"
         transform="matrix(0.60315266,0,0,0.73575553,183.55385,123.18819)" />
      <path
         transform="matrix(0.60315266,0,0,0.73575553,240.69671,141.75962)"
         d="m 375.71428,182.36218 a 143.57143,88.571426 0 1 1 -287.142854,0 143.57143,88.571426 0 1 1 287.142854,0 z"
         sodipodi:ry="88.571426"
         sodipodi:rx="143.57143"
         sodipodi:cy="182.36218"
         sodipodi:cx="232.14285"
         id="path3844"
         style="fill:#2a2a2a;fill-opacity:1;fill-rule:nonzero;stroke:none"
         sodipodi:type="arc" />
      <path
         sodipodi:type="arc"
         style="fill:#2a2a2a;fill-opacity:1;fill-rule:nonzero;stroke:none"
         id="path3846"
         sodipodi:cx="232.14285"
         sodipodi:cy="182.36218"
         sodipodi:rx="143.57143"
         sodipodi:ry="88.571426"
         d="m 375.71428,182.36218 a 143.57143,88.571426 0 1 1 -287.142854,0 143.57143,88.571426 0 1 1 287.142854,0 z"
         transform="matrix(0.60315266,0,0,0.73575553,302.12528,126.04533)" />
      <path
         transform="matrix(0.60315266,0,0,0.73575553,10.696709,153.18819)"
         d="m 375.71428,182.36218 a 143.57143,88.571426 0 1 1 -287.142854,0 143.57143,88.571426 0 1 1 287.142854,0 z"
         sodipodi:ry="88.571426"
         sodipodi:rx="143.57143"
         sodipodi:cy="182.36218"
         sodipodi:cx="232.14285"
         id="path3848"
         style="fill:#2a2a2a;fill-opacity:1;fill-rule:nonzero;stroke:none"
         sodipodi:type="arc" />
      <path
         sodipodi:type="arc"
         style="fill:#2a2a2a;fill-opacity:1;fill-rule:nonzero;stroke:none"
         id="path3850"
         sodipodi:cx="232.14285"
         sodipodi:cy="182.36218"
         sodipodi:rx="143.57143"
         sodipodi:ry="88.571426"
         d="m 375.71428,182.36218 a 143.57143,88.571426 0 1 1 -287.142854,0 143.57143,88.571426 0 1 1 287.142854,0 z"
         transform="matrix(0.60315266,0,0,0.73575553,193.55385,184.61676)" />
      <path
         transform="matrix(0.60315266,0,0,0.73575553,327.83957,148.90247)"
         d="m 375.71428,182.36218 a 143.57143,88.571426 0 1 1 -287.142854,0 143.57143,88.571426 0 1 1 287.142854,0 z"
         sodipodi:ry="88.571426"
         sodipodi:rx="143.57143"
         sodipodi:cy="182.36218"
         sodipodi:cx="232.14285"
         id="path3852"
         style="fill:#2a2a2a;fill-opacity:1;fill-rule:nonzero;stroke:none"
         sodipodi:type="arc" />
      <path
         sodipodi:type="arc"
         style="fill:#2a2a2a;fill-opacity:1;fill-rule:nonzero;stroke:none"
         id="path3854"
         sodipodi:cx="232.14285"
         sodipodi:cy="182.36218"
         sodipodi:rx="143.57143"
         sodipodi:ry="88.571426"
         d="m 375.71428,182.36218 a 143.57143,88.571426 0 1 1 -287.142854,0 143.57143,88.571426 0 1 1 287.142854,0 z"
         transform="matrix(0.60315266,0,0,0.73575553,403.55386,134.61676)" />
      <path
         transform="matrix(0.60315266,0,0,0.73575553,462.12529,144.61676)"
         d="m 375.71428,182.36218 a 143.57143,88.571426 0 1 1 -287.142854,0 143.57143,88.571426 0 1 1 287.142854,0 z"
         sodipodi:ry="88.571426"
         sodipodi:rx="143.57143"
         sodipodi:cy="182.36218"
         sodipodi:cx="232.14285"
         id="path3856"
         style="fill:#2a2a2a;fill-opacity:1;fill-rule:nonzero;stroke:none"
         sodipodi:type="arc" />
      <path
         sodipodi:type="arc"
         style="fill:#2a2a2a;fill-opacity:1;fill-rule:nonzero;stroke:none"
         id="path3858"
         sodipodi:cx="232.14285"
         sodipodi:cy="182.36218"
         sodipodi:rx="143.57143"
         sodipodi:ry="88.571426"
         d="m 375.71428,182.36218 a 143.57143,88.571426 0 1 1 -287.142854,0 143.57143,88.571426 0 1 1 287.142854,0 z"
         transform="matrix(0.60315266,0,0,0.73575553,-29.303282,121.75962)" />
      <path
         transform="matrix(0.60315266,0,0,0.73575553,-60.731854,147.4739)"
         d="m 375.71428,182.36218 a 143.57143,88.571426 0 1 1 -287.142854,0 143.57143,88.571426 0 1 1 287.142854,0 z"
         sodipodi:ry="88.571426"
         sodipodi:rx="143.57143"
         sodipodi:cy="182.36218"
         sodipodi:cx="232.14285"
         id="path3860"
         style="fill:#2a2a2a;fill-opacity:1;fill-rule:nonzero;stroke:none"
         sodipodi:type="arc" />
      <path
         sodipodi:type="arc"
         style="fill:#2a2a2a;fill-opacity:1;fill-rule:nonzero;stroke:none"
         id="path3862"
         sodipodi:cx="232.14285"
         sodipodi:cy="182.36218"
         sodipodi:rx="143.57143"
         sodipodi:ry="88.571426"
         d="m 375.71428,182.36218 a 143.57143,88.571426 0 1 1 -287.142854,0 143.57143,88.571426 0 1 1 287.142854,0 z"
         transform="matrix(0.60315266,0,0,0.73575553,-112.16043,117.4739)" />
      <path
         transform="matrix(0.60315266,0,0,0.73575553,-112.16043,117.4739)"
         d="m 375.71428,182.36218 a 143.57143,88.571426 0 1 1 -287.142854,0 143.57143,88.571426 0 1 1 287.142854,0 z"
         sodipodi:ry="88.571426"
         sodipodi:rx="143.57143"
         sodipodi:cy="182.36218"
         sodipodi:cx="232.14285"
         id="path3864"
         style="fill:#2a2a2a;fill-opacity:1;fill-rule:nonzero;stroke:none"
         sodipodi:type="arc" />
      <path
         sodipodi:type="arc"
         style="fill:#2a2a2a;fill-opacity:1;fill-rule:nonzero;stroke:none"
         id="path3866"
         sodipodi:cx="232.14285"
         sodipodi:cy="182.36218"
         sodipodi:rx="143.57143"
         sodipodi:ry="88.571426"
         d="m 375.71428,182.36218 a 143.57143,88.571426 0 1 1 -287.142854,0 143.57143,88.571426 0 1 1 287.142854,0 z"
         transform="matrix(0.60315266,0,0,0.73575553,-189.30329,116.04533)" />
      <path
         transform="matrix(0.60315266,0,0,0.73575553,-269.30328,87.473897)"
         d="m 375.71428,182.36218 a 143.57143,88.571426 0 1 1 -287.142854,0 143.57143,88.571426 0 1 1 287.142854,0 z"
         sodipodi:ry="88.571426"
         sodipodi:rx="143.57143"
         sodipodi:cy="182.36218"
         sodipodi:cx="232.14285"
         id="path3868"
         style="fill:#2a2a2a;fill-opacity:1;fill-rule:nonzero;stroke:none"
         sodipodi:type="arc" />
      <path
         sodipodi:type="arc"
         style="fill:#2a2a2a;fill-opacity:1;fill-rule:nonzero;stroke:none"
         id="path3870"
         sodipodi:cx="232.14285"
         sodipodi:cy="182.36218"
         sodipodi:rx="143.57143"
         sodipodi:ry="88.571426"
         d="m 375.71428,182.36218 a 143.57143,88.571426 0 1 1 -287.142854,0 143.57143,88.571426 0 1 1 287.142854,0 z"
         transform="matrix(0.60315266,0,0,0.73575553,-330.73185,131.75961)" />
      <path
         transform="matrix(0.60315266,0,0,0.73575553,-235.01756,131.75961)"
         d="m 375.71428,182.36218 a 143.57143,88.571426 0 1 1 -287.142854,0 143.57143,88.571426 0 1 1 287.142854,0 z"
         sodipodi:ry="88.571426"
         sodipodi:rx="143.57143"
         sodipodi:cy="182.36218"
         sodipodi:cx="232.14285"
         id="path3872"
         style="fill:#2a2a2a;fill-opacity:1;fill-rule:nonzero;stroke:none"
         sodipodi:type="arc" />
      <path
         sodipodi:type="arc"
         style="fill:#2a2a2a;fill-opacity:1;fill-rule:nonzero;stroke:none"
         id="path3874"
         sodipodi:cx="232.14285"
         sodipodi:cy="182.36218"
         sodipodi:rx="143.57143"
         sodipodi:ry="88.571426"
         d="m 375.71428,182.36218 a 143.57143,88.571426 0 1 1 -287.142854,0 143.57143,88.571426 0 1 1 287.142854,0 z"
         transform="matrix(0.60315266,0,0,0.73575553,539.26815,114.61675)" />
      <path
         transform="matrix(0.60315266,0,0,0.73575553,472.12529,94.61675)"
         d="m 375.71428,182.36218 a 143.57143,88.571426 0 1 1 -287.142854,0 143.57143,88.571426 0 1 1 287.142854,0 z"
         sodipodi:ry="88.571426"
         sodipodi:rx="143.57143"
         sodipodi:cy="182.36218"
         sodipodi:cx="232.14285"
         id="path3876"
         style="fill:#2a2a2a;fill-opacity:1;fill-rule:nonzero;stroke:none"
         sodipodi:type="arc" />
      <path
         sodipodi:type="arc"
         style="fill:#2a2a2a;fill-opacity:1;fill-rule:nonzero;stroke:none"
         id="path3878"
         sodipodi:cx="232.14285"
         sodipodi:cy="182.36218"
         sodipodi:rx="143.57143"
         sodipodi:ry="88.571426"
         d="m 375.71428,182.36218 a 143.57143,88.571426 0 1 1 -287.142854,0 143.57143,88.571426 0 1 1 287.142854,0 z"
         transform="matrix(0.60315266,0,0,0.73575553,362.12529,64.61675)" />
      <path
         transform="matrix(0.60315266,0,0,0.73575553,216.411,54.61675)"
         d="m 375.71428,182.36218 a 143.57143,88.571426 0 1 1 -287.142854,0 143.57143,88.571426 0 1 1 287.142854,0 z"
         sodipodi:ry="88.571426"
         sodipodi:rx="143.57143"
         sodipodi:cy="182.36218"
         sodipodi:cx="232.14285"
         id="path3880"
         style="fill:#2a2a2a;fill-opacity:1;fill-rule:nonzero;stroke:none"
         sodipodi:type="arc" />
      <path
         sodipodi:type="arc"
         style="fill:#2a2a2a;fill-opacity:1;fill-rule:nonzero;stroke:none"
         id="path3882"
         sodipodi:cx="232.14285"
         sodipodi:cy="182.36218"
         sodipodi:rx="143.57143"
         sodipodi:ry="88.571426"
         d="m 375.71428,182.36218 a 143.57143,88.571426 0 1 1 -287.142854,0 143.57143,88.571426 0 1 1 287.142854,0 z"
         transform="matrix(0.60315266,0,0,0.73575553,362.12529,64.61675)" />
      <path
         sodipodi:type="arc"
         style="fill:#2a2a2a;fill-opacity:1;fill-rule:nonzero;stroke:none"
         id="path3884"
         sodipodi:cx="232.14285"
         sodipodi:cy="182.36218"
         sodipodi:rx="143.57143"
         sodipodi:ry="88.571426"
         d="m 375.71428,182.36218 a 143.57143,88.571426 0 1 1 -287.142854,0 143.57143,88.571426 0 1 1 287.142854,0 z"
         transform="matrix(0.60315266,0,0,0.73575553,157.83957,54.61675)" />
      <path
         transform="matrix(0.60315266,0,0,0.73575553,59.268141,54.61675)"
         d="m 375.71428,182.36218 a 143.57143,88.571426 0 1 1 -287.142854,0 143.57143,88.571426 0 1 1 287.142854,0 z"
         sodipodi:ry="88.571426"
         sodipodi:rx="143.57143"
         sodipodi:cy="182.36218"
         sodipodi:cx="232.14285"
         id="path3886"
         style="fill:#2a2a2a;fill-opacity:1;fill-rule:nonzero;stroke:none"
         sodipodi:type="arc" />
      <path
         sodipodi:type="arc"
         style="fill:#2a2a2a;fill-opacity:1;fill-rule:nonzero;stroke:none"
         id="path3888"
         sodipodi:cx="232.14285"
         sodipodi:cy="182.36218"
         sodipodi:rx="143.57143"
         sodipodi:ry="88.571426"
         d="m 375.71428,182.36218 a 143.57143,88.571426 0 1 1 -287.142854,0 143.57143,88.571426 0 1 1 287.142854,0 z"
         transform="matrix(0.60315266,0,0,0.73575553,-16.446145,50.331036)" />
      <path
         transform="matrix(0.60315266,0,0,0.73575553,-112.16043,50.331036)"
         d="m 375.71428,182.36218 a 143.57143,88.571426 0 1 1 -287.142854,0 143.57143,88.571426 0 1 1 287.142854,0 z"
         sodipodi:ry="88.571426"
         sodipodi:rx="143.57143"
         sodipodi:cy="182.36218"
         sodipodi:cx="232.14285"
         id="path3890"
         style="fill:#2a2a2a;fill-opacity:1;fill-rule:nonzero;stroke:none"
         sodipodi:type="arc" />
      <path
         sodipodi:type="arc"
         style="fill:#2a2a2a;fill-opacity:1;fill-rule:nonzero;stroke:none"
         id="path3892"
         sodipodi:cx="232.14285"
         sodipodi:cy="182.36218"
         sodipodi:rx="143.57143"
         sodipodi:ry="88.571426"
         d="m 375.71428,182.36218 a 143.57143,88.571426 0 1 1 -287.142854,0 143.57143,88.571426 0 1 1 287.142854,0 z"
         transform="matrix(0.60315266,0,0,0.73575553,-16.446145,50.331036)" />
      <path
         sodipodi:type="arc"
         style="fill:#2a2a2a;fill-opacity:1;fill-rule:nonzero;stroke:none"
         id="path3894"
         sodipodi:cx="232.14285"
         sodipodi:cy="182.36218"
         sodipodi:rx="143.57143"
         sodipodi:ry="88.571426"
         d="m 375.71428,182.36218 a 143.57143,88.571426 0 1 1 -287.142854,0 143.57143,88.571426 0 1 1 287.142854,0 z"
         transform="matrix(0.60315266,0,0,0.73575553,-157.87472,47.473893)" />
      <path
         transform="matrix(0.60315266,0,0,0.73575553,583.55385,167.47389)"
         d="m 375.71428,182.36218 a 143.57143,88.571426 0 1 1 -287.142854,0 143.57143,88.571426 0 1 1 287.142854,0 z"
         sodipodi:ry="88.571426"
         sodipodi:rx="143.57143"
         sodipodi:cy="182.36218"
         sodipodi:cx="232.14285"
         id="path3896"
         style="fill:#2a2a2a;fill-opacity:1;fill-rule:nonzero;stroke:none"
         sodipodi:type="arc" />
      <path
         sodipodi:type="arc"
         style="fill:#2a2a2a;fill-opacity:1;fill-rule:nonzero;stroke:none"
         id="path3898"
         sodipodi:cx="232.14285"
         sodipodi:cy="182.36218"
         sodipodi:rx="143.57143"
         sodipodi:ry="88.571426"
         d="m 375.71428,182.36218 a 143.57143,88.571426 0 1 1 -287.142854,0 143.57143,88.571426 0 1 1 287.142854,0 z"
         transform="matrix(0.60315266,0,0,0.73575553,662.12528,167.47389)" />
      <path
         transform="matrix(0.60315266,0,0,0.73575553,659.26814,96.045319)"
         d="m 375.71428,182.36218 a 143.57143,88.571426 0 1 1 -287.142854,0 143.57143,88.571426 0 1 1 287.142854,0 z"
         sodipodi:ry="88.571426"
         sodipodi:rx="143.57143"
         sodipodi:cy="182.36218"
         sodipodi:cx="232.14285"
         id="path3900"
         style="fill:#2a2a2a;fill-opacity:1;fill-rule:nonzero;stroke:none"
         sodipodi:type="arc" />
      <path
         sodipodi:type="arc"
         style="fill:#2a2a2a;fill-opacity:1;fill-rule:nonzero;stroke:none"
         id="path3902"
         sodipodi:cx="232.14285"
         sodipodi:cy="182.36218"
         sodipodi:rx="143.57143"
         sodipodi:ry="88.571426"
         d="m 375.71428,182.36218 a 143.57143,88.571426 0 1 1 -287.142854,0 143.57143,88.571426 0 1 1 287.142854,0 z"
         transform="matrix(0.60315266,0,0,0.73575553,662.12528,167.47389)" />
      <path
         sodipodi:type="arc"
         style="fill:#2a2a2a;fill-opacity:1;fill-rule:nonzero;stroke:none"
         id="path3904"
         sodipodi:cx="232.14285"
         sodipodi:cy="182.36218"
         sodipodi:rx="143.57143"
         sodipodi:ry="88.571426"
         d="m 375.71428,182.36218 a 143.57143,88.571426 0 1 1 -287.142854,0 143.57143,88.571426 0 1 1 287.142854,0 z"
         transform="matrix(0.60315266,0,0,0.73575553,450.69671,164.61675)" />
      <path
         transform="matrix(0.60315266,0,0,0.73575553,303.55385,167.47389)"
         d="m 375.71428,182.36218 a 143.57143,88.571426 0 1 1 -287.142854,0 143.57143,88.571426 0 1 1 287.142854,0 z"
         sodipodi:ry="88.571426"
         sodipodi:rx="143.57143"
         sodipodi:cy="182.36218"
         sodipodi:cx="232.14285"
         id="path3906"
         style="fill:#2a2a2a;fill-opacity:1;fill-rule:nonzero;stroke:none"
         sodipodi:type="arc" />
      <path
         sodipodi:type="arc"
         style="fill:#2a2a2a;fill-opacity:1;fill-rule:nonzero;stroke:none"
         id="path3908"
         sodipodi:cx="232.14285"
         sodipodi:cy="182.36218"
         sodipodi:rx="143.57143"
         sodipodi:ry="88.571426"
         d="m 375.71428,182.36218 a 143.57143,88.571426 0 1 1 -287.142854,0 143.57143,88.571426 0 1 1 287.142854,0 z"
         transform="matrix(0.60315266,0,0,0.73575553,-135.01758,140.33103)" />
      <path
         sodipodi:type="arc"
         style="fill:#2a2a2a;fill-opacity:1;fill-rule:nonzero;stroke:none"
         id="path3910"
         sodipodi:cx="232.14285"
         sodipodi:cy="182.36218"
         sodipodi:rx="143.57143"
         sodipodi:ry="88.571426"
         d="m 375.71428,182.36218 a 143.57143,88.571426 0 1 1 -287.142854,0 143.57143,88.571426 0 1 1 287.142854,0 z"
         transform="matrix(0.60315266,0,0,0.73575553,-343.58899,-1.0975329)" />
      <path
         transform="matrix(0.60315266,0,0,0.73575553,-245.01756,4.6167528)"
         d="m 375.71428,182.36218 a 143.57143,88.571426 0 1 1 -287.142854,0 143.57143,88.571426 0 1 1 287.142854,0 z"
         sodipodi:ry="88.571426"
         sodipodi:rx="143.57143"
         sodipodi:cy="182.36218"
         sodipodi:cx="232.14285"
         id="path3912"
         style="fill:#2a2a2a;fill-opacity:1;fill-rule:nonzero;stroke:none"
         sodipodi:type="arc" />
      <path
         sodipodi:type="arc"
         style="fill:#2a2a2a;fill-opacity:1;fill-rule:nonzero;stroke:none"
         id="path3914"
         sodipodi:cx="232.14285"
         sodipodi:cy="182.36218"
         sodipodi:rx="143.57143"
         sodipodi:ry="88.571426"
         d="m 375.71428,182.36218 a 143.57143,88.571426 0 1 1 -287.142854,0 143.57143,88.571426 0 1 1 287.142854,0 z"
         transform="matrix(0.60315266,0,0,0.73575553,-372.16042,4.6167528)" />
      <path
         transform="matrix(0.60315266,0,0,0.73575553,-415.01756,41.75961)"
         d="m 375.71428,182.36218 a 143.57143,88.571426 0 1 1 -287.142854,0 143.57143,88.571426 0 1 1 287.142854,0 z"
         sodipodi:ry="88.571426"
         sodipodi:rx="143.57143"
         sodipodi:cy="182.36218"
         sodipodi:cx="232.14285"
         id="path3916"
         style="fill:#2a2a2a;fill-opacity:1;fill-rule:nonzero;stroke:none"
         sodipodi:type="arc" />
      <path
         sodipodi:type="arc"
         style="fill:#2a2a2a;fill-opacity:1;fill-rule:nonzero;stroke:none"
         id="path3918"
         sodipodi:cx="232.14285"
         sodipodi:cy="182.36218"
         sodipodi:rx="143.57143"
         sodipodi:ry="88.571426"
         d="m 375.71428,182.36218 a 143.57143,88.571426 0 1 1 -287.142854,0 143.57143,88.571426 0 1 1 287.142854,0 z"
         transform="matrix(0.60315266,0,0,0.73575553,-472.16042,90.331039)" />
      <path
         transform="matrix(0.60315266,0,0,0.73575553,-417.87471,156.04532)"
         d="m 375.71428,182.36218 a 143.57143,88.571426 0 1 1 -287.142854,0 143.57143,88.571426 0 1 1 287.142854,0 z"
         sodipodi:ry="88.571426"
         sodipodi:rx="143.57143"
         sodipodi:cy="182.36218"
         sodipodi:cx="232.14285"
         id="path3920"
         style="fill:#2a2a2a;fill-opacity:1;fill-rule:nonzero;stroke:none"
         sodipodi:type="arc" />
      <path
         sodipodi:type="arc"
         style="fill:#2a2a2a;fill-opacity:1;fill-rule:nonzero;stroke:none"
         id="path3922"
         sodipodi:cx="232.14285"
         sodipodi:cy="182.36218"
         sodipodi:rx="143.57143"
         sodipodi:ry="88.571426"
         d="m 375.71428,182.36218 a 143.57143,88.571426 0 1 1 -287.142854,0 143.57143,88.571426 0 1 1 287.142854,0 z"
         transform="matrix(0.60315266,0,0,0.73575553,-510.73185,141.75961)" />
      <path
         transform="matrix(0.60315266,0,0,0.73575553,-572.16042,170.33104)"
         d="m 375.71428,182.36218 a 143.57143,88.571426 0 1 1 -287.142854,0 143.57143,88.571426 0 1 1 287.142854,0 z"
         sodipodi:ry="88.571426"
         sodipodi:rx="143.57143"
         sodipodi:cy="182.36218"
         sodipodi:cx="232.14285"
         id="path3924"
         style="fill:#2a2a2a;fill-opacity:1;fill-rule:nonzero;stroke:none"
         sodipodi:type="arc" />
      <path
         sodipodi:type="arc"
         style="fill:#2a2a2a;fill-opacity:1;fill-rule:nonzero;stroke:none"
         id="path3926"
         sodipodi:cx="232.14285"
         sodipodi:cy="182.36218"
         sodipodi:rx="143.57143"
         sodipodi:ry="88.571426"
         d="m 375.71428,182.36218 a 143.57143,88.571426 0 1 1 -287.142854,0 143.57143,88.571426 0 1 1 287.142854,0 z"
         transform="matrix(0.60315266,0,0,0.73575553,-612.16042,100.33104)" />
      <path
         transform="matrix(0.60315266,0,0,0.73575553,-612.16042,100.33104)"
         d="m 375.71428,182.36218 a 143.57143,88.571426 0 1 1 -287.142854,0 143.57143,88.571426 0 1 1 287.142854,0 z"
         sodipodi:ry="88.571426"
         sodipodi:rx="143.57143"
         sodipodi:cy="182.36218"
         sodipodi:cx="232.14285"
         id="path3928"
         style="fill:#2a2a2a;fill-opacity:1;fill-rule:nonzero;stroke:none"
         sodipodi:type="arc" />
      <path
         sodipodi:type="arc"
         style="fill:#2a2a2a;fill-opacity:1;fill-rule:nonzero;stroke:none"
         id="path3930"
         sodipodi:cx="232.14285"
         sodipodi:cy="182.36218"
         sodipodi:rx="143.57143"
         sodipodi:ry="88.571426"
         d="m 375.71428,182.36218 a 143.57143,88.571426 0 1 1 -287.142854,0 143.57143,88.571426 0 1 1 287.142854,0 z"
         transform="matrix(0.60315266,0,0,0.73575553,-656.44613,158.90247)" />
      <path
         transform="matrix(0.60315266,0,0,0.73575553,-340.73185,173.18818)"
         d="m 375.71428,182.36218 a 143.57143,88.571426 0 1 1 -287.142854,0 143.57143,88.571426 0 1 1 287.142854,0 z"
         sodipodi:ry="88.571426"
         sodipodi:rx="143.57143"
         sodipodi:cy="182.36218"
         sodipodi:cx="232.14285"
         id="path3932"
         style="fill:#2a2a2a;fill-opacity:1;fill-rule:nonzero;stroke:none"
         sodipodi:type="arc" />
      <path
         sodipodi:type="arc"
         style="fill:#2a2a2a;fill-opacity:1;fill-rule:nonzero;stroke:none"
         id="path3934"
         sodipodi:cx="232.14285"
         sodipodi:cy="182.36218"
         sodipodi:rx="143.57143"
         sodipodi:ry="88.571426"
         d="m 375.71428,182.36218 a 143.57143,88.571426 0 1 1 -287.142854,0 143.57143,88.571426 0 1 1 287.142854,0 z"
         transform="matrix(0.60315266,0,0,0.73575553,-96.446135,167.47389)" />
      <path
         transform="matrix(0.60315266,0,0,0.73575553,114.98244,157.47389)"
         d="m 375.71428,182.36218 a 143.57143,88.571426 0 1 1 -287.142854,0 143.57143,88.571426 0 1 1 287.142854,0 z"
         sodipodi:ry="88.571426"
         sodipodi:rx="143.57143"
         sodipodi:cy="182.36218"
         sodipodi:cx="232.14285"
         id="path3936"
         style="fill:#2a2a2a;fill-opacity:1;fill-rule:nonzero;stroke:none"
         sodipodi:type="arc" />
      <path
         sodipodi:type="arc"
         style="fill:#2a2a2a;fill-opacity:1;fill-rule:nonzero;stroke:none"
         id="path3938"
         sodipodi:cx="232.14285"
         sodipodi:cy="182.36218"
         sodipodi:rx="143.57143"
         sodipodi:ry="88.571426"
         d="m 375.71428,182.36218 a 143.57143,88.571426 0 1 1 -287.142854,0 143.57143,88.571426 0 1 1 287.142854,0 z"
         transform="matrix(0.60315266,0,0,0.73575553,-149.30328,151.75961)" />
      <path
         transform="matrix(0.60315266,0,0,0.73575553,-219.30328,176.04532)"
         d="m 375.71428,182.36218 a 143.57143,88.571426 0 1 1 -287.142854,0 143.57143,88.571426 0 1 1 287.142854,0 z"
         sodipodi:ry="88.571426"
         sodipodi:rx="143.57143"
         sodipodi:cy="182.36218"
         sodipodi:cx="232.14285"
         id="path3940"
         style="fill:#2a2a2a;fill-opacity:1;fill-rule:nonzero;stroke:none"
         sodipodi:type="arc" />
    </g>
  </g>
</svg>
